<svg width="198" height="65" viewBox="0 0 198 65" fill="none" xmlns="http://www.w3.org/2000/svg">
<path d="M5.29762 64L10.5779 13.0029L0.0927734 15.6309L0.922532 7.6709C7.53545 5.63965 11.9985 3.36719 14.3118 0.853516H22.3454L15.7827 64H5.29762Z" fill="#66D134"/>
<path d="M42.7845 55.7734C46.531 55.7734 48.7185 52.5996 49.3471 46.252L52.1759 18.8682C52.3016 18.0049 52.3644 17.1289 52.3644 16.2402C52.3644 15.9863 52.3644 15.7324 52.3644 15.4785C52.3141 14.3105 52.1759 13.2568 51.9496 12.3174C51.7233 11.3779 51.2455 10.6162 50.5163 10.0322C49.7872 9.44824 48.8317 9.15625 47.6499 9.15625C46.4681 9.15625 45.4498 9.43555 44.5949 9.99414C43.74 10.5527 43.0862 11.3525 42.6336 12.3936C42.181 13.4346 41.8416 14.4375 41.6153 15.4023C41.389 16.3672 41.2004 17.5225 41.0495 18.8682L38.2208 46.252C38.1203 47.2422 38.07 48.1436 38.07 48.9561C38.07 53.501 39.6415 55.7734 42.7845 55.7734ZM41.8416 64.8379C36.5865 64.8379 32.752 63.1621 30.3381 59.8105C28.3769 57.0938 27.4088 53.6533 27.434 49.4893C27.434 48.499 27.4843 47.4707 27.5848 46.4043L30.4513 18.7158C31.0547 12.9268 32.8777 8.38184 35.9201 5.08105C38.9626 1.78027 43.1868 0.129883 48.5928 0.129883C53.9485 0.129883 57.8082 1.79297 60.1717 5.11914C62.0575 7.75977 63.0004 11.1748 63.0004 15.3643C63.0004 16.4307 62.9376 17.5479 62.8118 18.7158L59.9454 46.4043C59.3671 51.9902 57.5064 56.459 54.3634 59.8105C51.2455 63.1621 47.0716 64.8379 41.8416 64.8379Z" fill="#66D134"/>
<path d="M83.8769 64L85.4987 48.4609H67.1686L68.2247 38.4824L87.988 0.81543H100.397L96.361 39.5488H102.886L101.981 48.4609H95.4558L93.834 64H83.8769ZM77.352 39.5488H86.4039L89.1949 12.6982L77.352 39.5488Z" fill="#66D134"/>
<path d="M115.527 33.3867C110.714 33.3867 108.308 31.1115 108.308 26.5611C108.308 26.1357 108.327 25.6975 108.365 25.2463C108.365 25.2205 108.371 25.1625 108.384 25.0723C108.397 24.9691 108.41 24.9047 108.423 24.8789H113.593C113.542 25.3559 113.516 25.7877 113.516 26.1744C113.516 26.9865 113.624 27.6246 113.842 28.0887C114.161 28.7848 114.876 29.1328 115.986 29.1328C117.02 29.1328 117.805 28.6172 118.341 27.5859C118.89 26.5418 119.292 24.8273 119.548 22.4426L119.95 18.5561C119.018 19.9225 117.518 20.6186 115.45 20.6443C115.412 20.6443 115.373 20.6443 115.335 20.6443C111.442 20.6443 109.495 18.266 109.495 13.5094C109.495 12.8262 109.533 12.0979 109.61 11.3244C109.776 9.73887 110.076 8.31445 110.51 7.05117C110.944 5.775 111.525 4.64707 112.252 3.66738C112.993 2.6748 113.931 1.91426 115.067 1.38574C116.203 0.844334 117.499 0.573631 118.954 0.573631C120.371 0.573631 121.59 0.844334 122.611 1.38574C123.633 1.91426 124.411 2.65547 124.948 3.60937C125.496 4.56328 125.867 5.65898 126.058 6.89648C126.16 7.59258 126.211 8.32734 126.211 9.10078C126.211 9.71953 126.179 10.3641 126.116 11.0344L124.986 21.9205C124.845 23.2354 124.641 24.4406 124.373 25.5363C124.105 26.6191 123.722 27.6633 123.224 28.6688C122.739 29.6613 122.152 30.4992 121.463 31.1824C120.786 31.8527 119.943 32.3877 118.935 32.7873C117.926 33.1869 116.79 33.3867 115.527 33.3867ZM117.307 16.5838C118.52 16.5838 119.535 15.9457 120.352 14.6695L120.85 9.85488C120.901 9.32637 120.926 8.83652 120.926 8.38535C120.926 5.9748 120.122 4.76953 118.514 4.76953C117.441 4.76953 116.65 5.26582 116.139 6.2584C115.629 7.25098 115.271 8.62383 115.067 10.377C115.016 10.9312 114.978 11.3373 114.952 11.5951C114.927 11.84 114.901 12.2074 114.876 12.6973C114.863 12.9422 114.856 13.1549 114.856 13.3354C114.856 13.5029 114.863 13.6512 114.876 13.7801C114.901 14.0121 114.939 14.315 114.99 14.6889C115.041 15.0498 115.124 15.3205 115.239 15.501C115.367 15.6814 115.52 15.8684 115.699 16.0617C115.878 16.2551 116.101 16.3904 116.369 16.4678C116.637 16.5451 116.95 16.5838 117.307 16.5838Z" fill="#66D134"/>
<path d="M136.924 33.3867C132.111 33.3867 129.705 31.1115 129.705 26.5611C129.705 26.1357 129.724 25.6975 129.762 25.2463C129.762 25.2205 129.769 25.1625 129.781 25.0723C129.794 24.9691 129.807 24.9047 129.82 24.8789H134.99C134.939 25.3559 134.913 25.7877 134.913 26.1744C134.913 26.9865 135.022 27.6246 135.239 28.0887C135.558 28.7848 136.273 29.1328 137.383 29.1328C138.417 29.1328 139.202 28.6172 139.738 27.5859C140.287 26.5418 140.689 24.8273 140.945 22.4426L141.347 18.5561C140.415 19.9225 138.915 20.6186 136.847 20.6443C136.809 20.6443 136.77 20.6443 136.732 20.6443C132.839 20.6443 130.892 18.266 130.892 13.5094C130.892 12.8262 130.93 12.0979 131.007 11.3244C131.173 9.73887 131.473 8.31445 131.907 7.05117C132.341 5.775 132.922 4.64707 133.649 3.66738C134.39 2.6748 135.328 1.91426 136.464 1.38574C137.6 0.844334 138.896 0.573631 140.351 0.573631C141.768 0.573631 142.987 0.844334 144.008 1.38574C145.03 1.91426 145.808 2.65547 146.345 3.60937C146.893 4.56328 147.264 5.65898 147.455 6.89648C147.557 7.59258 147.608 8.32734 147.608 9.10078C147.608 9.71953 147.576 10.3641 147.513 11.0344L146.383 21.9205C146.242 23.2354 146.038 24.4406 145.77 25.5363C145.502 26.6191 145.119 27.6633 144.621 28.6688C144.136 29.6613 143.549 30.4992 142.86 31.1824C142.183 31.8527 141.34 32.3877 140.332 32.7873C139.324 33.1869 138.187 33.3867 136.924 33.3867ZM138.704 16.5838C139.917 16.5838 140.932 15.9457 141.749 14.6695L142.247 9.85488C142.298 9.32637 142.323 8.83652 142.323 8.38535C142.323 5.9748 141.519 4.76953 139.911 4.76953C138.838 4.76953 138.047 5.26582 137.536 6.2584C137.026 7.25098 136.668 8.62383 136.464 10.377C136.413 10.9312 136.375 11.3373 136.349 11.5951C136.324 11.84 136.298 12.2074 136.273 12.6973C136.26 12.9422 136.253 13.1549 136.253 13.3354C136.253 13.5029 136.26 13.6512 136.273 13.7801C136.298 14.0121 136.336 14.315 136.387 14.6889C136.439 15.0498 136.521 15.3205 136.636 15.501C136.764 15.6814 136.917 15.8684 137.096 16.0617C137.275 16.2551 137.498 16.3904 137.766 16.4678C138.034 16.5451 138.347 16.5838 138.704 16.5838Z" fill="#66D134"/>
<path d="M175.281 64.7617C172.591 64.7617 170.252 64.4189 168.266 63.7334C166.28 63.0479 164.696 62.083 163.514 60.8389C162.357 59.5947 161.439 58.084 160.761 56.3066C160.107 54.5293 159.73 52.5742 159.629 50.4414C159.604 49.832 159.591 49.2227 159.591 48.6133C159.591 46.9883 159.667 45.2871 159.818 43.5098L160.195 40.1582H155.971L156.461 35.3975H160.647L161.289 29.1895H157.102L157.592 24.4287H161.817L162.118 21.5342C162.47 18.1064 163.061 15.1357 163.891 12.6221C164.721 10.1084 165.89 7.88672 167.399 5.95703C168.907 4.02734 170.881 2.58008 173.32 1.61523C175.759 0.625 178.663 0.129883 182.033 0.129883C185.125 0.129883 187.728 0.548828 189.84 1.38672C191.952 2.22461 193.561 3.45605 194.667 5.08105C195.774 6.68066 196.503 8.57227 196.855 10.7559C197.056 11.9238 197.157 13.2061 197.157 14.6025C197.157 15.7959 197.081 17.0527 196.93 18.373L196.553 21.9531H185.842L186.181 18.4873C186.181 18.4111 186.194 18.2969 186.219 18.1445C186.395 16.4434 186.483 15.0342 186.483 13.917C186.483 12.9775 186.42 12.2412 186.294 11.708C185.59 9.62598 183.906 8.54688 181.24 8.4707C180.059 8.4707 179.04 8.66113 178.185 9.04199C177.331 9.42285 176.639 9.90527 176.111 10.4893C175.608 11.0479 175.181 11.8477 174.829 12.8887C174.477 13.9043 174.213 14.8691 174.037 15.7832C173.886 16.6973 173.735 17.8906 173.584 19.3633L173.094 24.4287H180.562L180.034 29.1895H172.566L171.925 35.3975H179.392L178.94 40.1582H171.472L170.869 45.7949C170.718 47.1152 170.642 48.3086 170.642 49.375C170.642 51.4062 170.894 52.9424 171.397 53.9834C172.151 55.583 173.76 56.3828 176.224 56.3828C177.054 56.3828 177.796 56.2812 178.449 56.0781C179.103 55.875 179.656 55.6338 180.109 55.3545C180.562 55.0752 180.964 54.6562 181.316 54.0977C181.668 53.5137 181.945 52.9932 182.146 52.5361C182.347 52.0537 182.523 51.3809 182.674 50.5176C182.85 49.6289 182.975 48.8926 183.051 48.3086C183.126 47.7246 183.227 46.8867 183.353 45.7949L183.654 42.7861H194.403L194.102 45.4521C193.8 48.4482 193.259 51.0635 192.48 53.2979C191.726 55.5322 190.632 57.5381 189.199 59.3154C187.765 61.0928 185.88 62.4512 183.541 63.3906C181.228 64.3047 178.475 64.7617 175.281 64.7617Z" fill="#66D134"/>
</svg>
