<svg width="77" height="32" viewBox="0 0 77 32" fill="none" xmlns="http://www.w3.org/2000/svg">
<path d="M6.66756 3.72941V4.03544C6.66756 4.61292 6.58634 5.13162 6.42391 5.59153C6.26493 6.04798 6.03856 6.43873 5.7448 6.76378C5.45103 7.08537 5.1037 7.33261 4.7028 7.50551C4.3019 7.67495 3.85953 7.75967 3.37568 7.75967C2.88838 7.75967 2.44255 7.67495 2.0382 7.50551C1.6373 7.33261 1.28824 7.08537 0.991019 6.76378C0.697255 6.43873 0.469157 6.04798 0.306723 5.59153C0.147746 5.13162 0.0682567 4.61292 0.0682567 4.03544V3.72941C0.0682567 3.15193 0.147746 2.63324 0.306723 2.17333C0.469157 1.71342 0.695527 1.32267 0.985834 1.00108C1.2796 0.676032 1.62693 0.428788 2.02783 0.259347C2.43219 0.0864491 2.87801 0 3.36532 0C3.84916 0 4.29153 0.0864491 4.69243 0.259347C5.09679 0.428788 5.44585 0.676032 5.73961 1.00108C6.03338 1.32267 6.26147 1.71342 6.42391 2.17333C6.58634 2.63324 6.66756 3.15193 6.66756 3.72941ZM4.82204 4.03544V3.71904C4.82204 3.34558 4.7892 3.01707 4.72354 2.73352C4.66133 2.44651 4.56802 2.20618 4.4436 2.01254C4.31918 1.81889 4.16539 1.67365 3.98222 1.57683C3.8025 1.47655 3.59687 1.42641 3.36532 1.42641C3.12339 1.42641 2.91257 1.47655 2.73286 1.57683C2.55315 1.67365 2.40281 1.81889 2.28185 2.01254C2.16089 2.20618 2.0693 2.44651 2.00709 2.73352C1.94834 3.01707 1.91896 3.34558 1.91896 3.71904V4.03544C1.91896 4.40545 1.94834 4.73395 2.00709 5.02096C2.0693 5.30452 2.16089 5.54485 2.28185 5.74195C2.40627 5.93905 2.55833 6.08775 2.73805 6.18803C2.92122 6.28831 3.13376 6.33845 3.37568 6.33845C3.60724 6.33845 3.81287 6.28831 3.99259 6.18803C4.1723 6.08775 4.32264 5.93905 4.4436 5.74195C4.56802 5.54485 4.66133 5.30452 4.72354 5.02096C4.7892 4.73395 4.82204 4.40545 4.82204 4.03544Z" fill="#F3F3F4"/>
<path d="M10.0677 0.103739V7.65593H8.24807V0.103739H10.0677ZM13.0019 3.24703V4.6475H9.54927V3.24703H13.0019ZM13.2973 0.103739V1.5094H9.54927V0.103739H13.2973Z" fill="#F3F3F4"/>
<path d="M16.5108 0.103739V7.65593H14.6912V0.103739H16.5108ZM19.445 3.24703V4.6475H15.9924V3.24703H19.445ZM19.7405 0.103739V1.5094H15.9924V0.103739H19.7405Z" fill="#F3F3F4"/>
<path d="M26.3288 6.25546V7.65593H22.306V6.25546H26.3288ZM22.954 0.103739V7.65593H21.1344V0.103739H22.954ZM25.8104 3.10179V4.45559H22.306V3.10179H25.8104ZM26.3444 0.103739V1.5094H22.306V0.103739H26.3444Z" fill="#F3F3F4"/>
<path d="M27.7123 0.103739H30.6828C31.2634 0.103739 31.768 0.190188 32.1965 0.363086C32.6251 0.535984 32.9551 0.791874 33.1867 1.13075C33.4217 1.46963 33.5392 1.88805 33.5392 2.386C33.5392 2.81824 33.4718 3.1796 33.337 3.47007C33.2023 3.76054 33.0139 4.00086 32.772 4.19105C32.5335 4.37778 32.2553 4.53166 31.9373 4.65269L31.3412 4.98984H28.8476L28.8373 3.58418H30.6828C30.9144 3.58418 31.1062 3.54268 31.2582 3.45969C31.4103 3.3767 31.5243 3.25913 31.6004 3.10698C31.6799 2.95137 31.7196 2.76637 31.7196 2.55198C31.7196 2.33413 31.6799 2.1474 31.6004 1.99179C31.5209 1.83618 31.4034 1.71688 31.2479 1.63389C31.0958 1.5509 30.9074 1.5094 30.6828 1.5094H29.5319V7.65593H27.7123V0.103739ZM31.844 7.65593L30.1748 4.31554L32.1032 4.30517L33.7932 7.57813V7.65593H31.844Z" fill="#F3F3F4"/>
<path d="M44.9429 3.72941V4.03544C44.9429 4.61292 44.8617 5.13162 44.6992 5.59153C44.5403 6.04798 44.3139 6.43873 44.0201 6.76378C43.7264 7.08537 43.379 7.33261 42.9781 7.50551C42.5772 7.67495 42.1349 7.75967 41.651 7.75967C41.1637 7.75967 40.7179 7.67495 40.3135 7.50551C39.9126 7.33261 39.5636 7.08537 39.2663 6.76378C38.9726 6.43873 38.7445 6.04798 38.5821 5.59153C38.4231 5.13162 38.3436 4.61292 38.3436 4.03544V3.72941C38.3436 3.15193 38.4231 2.63324 38.5821 2.17333C38.7445 1.71342 38.9709 1.32267 39.2612 1.00108C39.5549 0.676032 39.9023 0.428788 40.3032 0.259347C40.7075 0.0864491 41.1533 0 41.6406 0C42.1245 0 42.5669 0.0864491 42.9678 0.259347C43.3721 0.428788 43.7212 0.676032 44.0149 1.00108C44.3087 1.32267 44.5368 1.71342 44.6992 2.17333C44.8617 2.63324 44.9429 3.15193 44.9429 3.72941ZM43.0974 4.03544V3.71904C43.0974 3.34558 43.0645 3.01707 42.9989 2.73352C42.9367 2.44651 42.8433 2.20618 42.7189 2.01254C42.5945 1.81889 42.4407 1.67365 42.2575 1.57683C42.0778 1.47655 41.8722 1.42641 41.6406 1.42641C41.3987 1.42641 41.1879 1.47655 41.0082 1.57683C40.8285 1.67365 40.6781 1.81889 40.5572 2.01254C40.4362 2.20618 40.3446 2.44651 40.2824 2.73352C40.2237 3.01707 40.1943 3.34558 40.1943 3.71904V4.03544C40.1943 4.40545 40.2237 4.73395 40.2824 5.02096C40.3446 5.30452 40.4362 5.54485 40.5572 5.74195C40.6816 5.93905 40.8337 6.08775 41.0134 6.18803C41.1965 6.28831 41.4091 6.33845 41.651 6.33845C41.8826 6.33845 42.0882 6.28831 42.2679 6.18803C42.4476 6.08775 42.598 5.93905 42.7189 5.74195C42.8433 5.54485 42.9367 5.30452 42.9989 5.02096C43.0645 4.73395 43.0974 4.40545 43.0974 4.03544Z" fill="#F3F3F4"/>
<path d="M48.343 0.103739V7.65593H46.5234V0.103739H48.343ZM51.2772 3.24703V4.6475H47.8246V3.24703H51.2772ZM51.5727 0.103739V1.5094H47.8246V0.103739H51.5727Z" fill="#F3F3F4"/>
<path d="M59.5912 0.103739V7.65593H57.7716V0.103739H59.5912ZM61.8618 0.103739V1.5094H55.5528V0.103739H61.8618Z" fill="#F3F3F4"/>
<path d="M68.3568 3.10179V4.50227H64.4843V3.10179H68.3568ZM65.0908 0.103739V7.65593H63.2712V0.103739H65.0908ZM69.5802 0.103739V7.65593H67.7658V0.103739H69.5802Z" fill="#F3F3F4"/>
<path d="M76.5677 6.25546V7.65593H72.5449V6.25546H76.5677ZM73.1929 0.103739V7.65593H71.3733V0.103739H73.1929ZM76.0493 3.10179V4.45559H72.5449V3.10179H76.0493ZM76.5833 0.103739V1.5094H72.5449V0.103739H76.5833Z" fill="#F3F3F4"/>
<path d="M5.69166 30.2313L9.57538 12.4902H11.8922L13.1511 14.0043L9.01291 32H6.45501L5.69166 30.2313ZM4.66047 12.4902L7.94154 30.3652L7.09784 32H4.13817L0 12.4902H4.66047ZM15.2804 30.2715L18.5347 12.4902H23.1818L19.0436 32H16.0974L15.2804 30.2715ZM13.5662 12.4902L17.5437 30.3384L16.7402 32H14.1823L9.95036 13.9775L11.2628 12.4902H13.5662Z" fill="#F3F3F4"/>
<path d="M40.0945 28.3821V32H29.7022V28.3821H40.0945ZM31.3762 12.4902V32H26.6755V12.4902H31.3762ZM38.7553 20.2351V23.7324H29.7022V20.2351H38.7553ZM40.1346 12.4902V16.1215H29.7022V12.4902H40.1346Z" fill="#F3F3F4"/>
<path d="M57.0875 28.3821V32H46.6952V28.3821H57.0875ZM48.3692 12.4902V32H43.6686V12.4902H48.3692ZM55.7483 20.2351V23.7324H46.6952V20.2351H55.7483ZM57.1277 12.4902V16.1215H46.6952V12.4902H57.1277Z" fill="#F3F3F4"/>
<path d="M65.3622 12.4902V32H60.6616V12.4902H65.3622ZM77 12.4902L69.4468 22.3791L65.0274 27.2163L64.1703 22.9017L66.9961 18.6138L71.2012 12.4902H77ZM71.4423 32L66.4068 23.2099L70.0629 20.5165L77 32H71.4423Z" fill="#F3F3F4"/>
</svg>
