<svg width="446" height="115" viewBox="0 0 446 115" fill="none" xmlns="http://www.w3.org/2000/svg">
<g clip-path="url(#clip0_102_44)">
<path d="M403.751 0H406.129C408.347 0.885249 410.45 2.03336 412.393 3.41953C412.522 7.52908 412.332 11.6569 412.46 15.7665C412.585 17.2236 413.194 18.5975 414.192 19.6703C415.19 20.7431 416.518 21.4533 417.967 21.6883C419.416 21.9232 420.902 21.6695 422.19 20.9673C423.477 20.265 424.493 19.1546 425.075 17.8121C425.828 16.139 425.589 14.2704 425.62 12.4874C425.62 9.43425 425.577 6.38109 425.651 3.32794C427.704 2.2166 429.623 0.830462 431.835 0.0244304H433.913C435.804 0.327545 437.498 1.36641 438.62 2.9127C439.456 4.05962 439.905 5.44036 439.905 6.85738C439.905 8.27441 439.456 9.65513 438.62 10.8021C437.444 12.3592 435.605 13.1652 434.115 14.3559C430.58 17.0945 428.005 20.878 426.76 25.1641C426.112 27.536 425.717 29.9697 425.583 32.4245C425.513 33.5022 425.191 34.5486 424.643 35.4805C424.095 36.4123 423.336 37.2038 422.427 37.7919C421.382 38.3829 420.201 38.6911 418.999 38.6858C417.798 38.6804 416.619 38.3617 415.58 37.7614C414.72 37.2095 413.996 36.4696 413.465 35.5978C412.934 34.726 412.61 33.7452 412.516 32.7298C412.361 30.6472 412.07 28.5769 411.645 26.5319C410.582 21.753 407.895 17.4865 404.039 14.4536C402.445 13.1713 400.453 12.3164 399.258 10.5944C398.495 9.45952 398.097 8.11972 398.118 6.75377C398.138 5.38783 398.577 4.06068 399.374 2.94935C400.452 1.50456 401.995 0.472049 403.745 0.0244304M279.197 2.10668C287.815 10.8509 296.138 19.8821 304.762 28.6264C304.836 20.3096 304.707 11.9928 304.823 3.6821C306.203 3.6821 307.588 3.6821 308.967 3.6821C309.187 5.4285 309.022 7.19322 309.071 8.94573C309.028 18.9112 309.151 28.8828 309.01 38.8666C308.044 38.079 307.148 37.2108 306.331 36.2714C299.491 29.0619 292.642 21.8931 285.786 14.765C285.11 13.9958 284.37 13.2849 283.573 12.6401C283.414 20.9752 283.573 29.3164 283.493 37.6759C282.071 37.6454 280.643 37.6454 279.203 37.6759C279.203 25.8175 279.203 13.959 279.203 2.10057M124.033 6.08798C127.582 2.4242 133.944 1.81358 138.002 4.97054C139.125 5.80757 140.013 6.91769 140.582 8.19467C139.467 8.8053 138.394 9.47698 137.291 10.1059C136.494 9.13502 135.74 8.04811 134.551 7.52297C132.099 6.41162 128.802 6.95508 127.061 9.1045C126.464 9.80641 126.13 10.6932 126.116 11.6133C126.103 12.5333 126.411 13.4294 126.987 14.1483C128.446 15.8947 130.726 16.5053 132.755 17.3297C135.703 18.441 138.78 19.9432 140.466 22.7277C141.599 24.8286 141.994 27.2471 141.588 29.5977C141.181 31.9483 139.996 34.0956 138.222 35.6974C136.779 36.9055 135.058 37.7381 133.213 38.1207C131.368 38.5033 129.456 38.4239 127.649 37.8896C125.682 37.2461 123.941 36.0517 122.637 34.449C121.333 32.8464 120.519 30.9033 120.294 28.8523C121.728 28.5286 123.15 28.1623 124.585 27.973C124.567 29.4545 125.075 30.8945 126.019 32.0398C127.036 33.2238 128.442 34.0099 129.986 34.2581C131.531 34.5064 133.113 34.2006 134.453 33.3954C135.67 32.581 136.588 31.3935 137.067 30.0128C137.546 28.6321 137.56 27.1335 137.107 25.7442C136.377 23.8146 134.52 22.6361 132.724 21.8178C129.66 20.4195 126.252 19.4425 123.855 16.9633C120.993 14.0445 121.232 8.92741 124.039 6.06355M444.523 2.86386L446 2.91881C445.85 3.5423 445.788 4.1835 445.816 4.82398L444.94 3.85308C444.823 4.20724 444.695 4.5492 444.547 4.89115C444.508 4.21597 444.508 3.53904 444.547 2.86386M444.964 3.27908C445.019 3.6882 445.228 3.76148 445.577 3.49281C445.516 3.08368 445.301 3.0104 444.964 3.27908ZM0.049099 3.63935C4.99546 3.76758 10.0828 3.1936 14.8575 4.81177C19.6629 6.27118 23.9044 9.93496 25.3755 14.8139C26.7668 19.5524 26.4971 24.9442 24.0515 29.3041C22.0595 32.8885 18.4738 35.3677 14.5878 36.534C9.88053 38.0179 4.879 37.5538 0.0245765 37.5416C0.0245765 26.2388 -0.00607008 14.9482 0.0245765 3.63935M4.3151 7.60845C4.25789 16.2957 4.25789 24.9809 4.3151 33.6641C7.99269 33.8045 11.8542 33.487 15.2437 31.8871C17.6929 30.7856 19.6544 28.8315 20.7601 26.3914C21.8156 23.7701 22.1335 20.9115 21.6795 18.1235C21.4884 16.5726 20.9688 15.0798 20.1552 13.744C19.3416 12.4081 18.2524 11.2597 16.9599 10.3746C13.2823 7.93208 8.64241 7.44358 4.30898 7.62677M64.4621 3.65158C70.522 3.69228 76.5818 3.69228 82.6417 3.65158C82.7745 4.93779 82.797 6.23294 82.7091 7.52297C78.0386 7.60846 73.3742 7.56571 68.7097 7.52297C68.7097 10.6494 68.7097 13.7819 68.7097 16.9084C73.2393 17.116 77.7811 16.9572 82.3168 16.9877C82.372 18.2823 82.3659 19.5707 82.3168 20.8652C77.775 20.9385 73.2332 20.8652 68.6975 20.8652C68.6975 25.0969 68.6975 29.3286 68.6975 33.5602C69.26 33.6386 69.8273 33.6774 70.3953 33.6763C74.4774 33.6335 78.5595 33.6763 82.6539 33.6396C82.8346 34.9565 82.8346 36.2918 82.6539 37.6087C76.6104 37.5639 70.5588 37.5639 64.4989 37.6087C64.3824 28.9194 64.4989 20.2241 64.4499 11.5348C64.4499 8.89079 64.3947 6.24065 64.4928 3.59662M177.315 3.59662C184.078 3.62512 190.836 3.62512 197.591 3.59662C197.753 4.91266 197.753 6.24356 197.591 7.55961C194.937 7.55961 192.271 7.43748 189.623 7.61456C189.623 17.58 189.672 27.5455 189.623 37.5049C188.212 37.5782 186.798 37.5782 185.387 37.5049C185.351 27.5272 185.387 17.5495 185.387 7.58404C182.721 7.47412 180.049 7.54129 177.383 7.58404C177.22 6.268 177.22 4.93707 177.383 3.62103M235.035 3.62103C236.414 3.62103 237.799 3.62103 239.185 3.62103C239.255 4.18216 239.292 4.74699 239.295 5.31249C239.246 16.0535 239.332 26.7945 239.252 37.5354C237.83 37.6047 236.412 37.6047 234.998 37.5354C234.998 26.2327 234.937 14.9421 235.035 3.62103ZM345.761 3.62103C347.385 3.62103 349.016 3.5844 350.665 3.66378C353.429 8.4267 356.095 13.2446 358.951 17.9464C361.906 13.269 364.468 8.34121 367.349 3.62103C368.924 3.62103 370.499 3.62103 372.074 3.62103C371.676 4.87283 370.848 5.92923 370.236 7.07111C367.244 12.292 364.168 17.4518 361.207 22.7032C360.95 27.6249 361.207 32.5893 361.072 37.5232C359.662 37.5904 358.24 37.5904 356.825 37.5232C356.825 32.9272 356.825 28.3292 356.825 23.7291C356.935 22.5078 356.034 21.5858 355.519 20.5721C352.289 14.9116 348.899 9.34264 345.78 3.62103M417.529 3.62103C420.036 2.59517 423.187 4.37212 423.469 7.08331C423.622 9.65407 423.499 12.237 423.536 14.8078C423.587 15.6413 423.406 16.4726 423.012 17.2098C422.618 17.947 422.028 18.5612 421.305 18.9845C420.34 19.5309 419.205 19.6979 418.123 19.4527C417.041 19.2075 416.09 18.5678 415.458 17.6594C414.532 16.4382 414.661 14.7895 414.655 13.3301C414.698 11.3455 414.587 9.35486 414.71 7.37031C414.772 6.54263 415.071 5.74994 415.57 5.08567C416.07 4.4214 416.75 3.91323 417.529 3.62103Z" fill="#1E1E1E"/>
</g>
<defs>
<clipPath id="clip0_102_44">
<rect width="446" height="115" fill="white"/>
</clipPath>
</defs>
</svg>
