<svg width="55" height="108" viewBox="0 0 55 108" fill="none" xmlns="http://www.w3.org/2000/svg">
<path d="M13.816 80.3591V63.5911C17.8334 60.3597 21.4577 56.8664 24.689 53.1111C27.9204 49.3557 30.453 45.3821 32.287 41.1901C34.2084 36.9107 35.169 32.4131 35.169 27.6971C35.169 24.2911 34.4704 21.7584 33.073 20.0991C31.763 18.3524 29.7544 17.4791 27.047 17.4791C24.689 17.4791 22.8114 18.1777 21.414 19.5751C20.0167 20.9724 19.318 22.8501 19.318 25.2081C19.318 26.6054 19.449 27.8281 19.711 28.8761C20.0604 29.9241 20.4097 31.0594 20.759 32.2821L2.81205 36.3431C2.20071 34.4217 1.72038 32.5441 1.37105 30.7101C1.02171 28.7887 0.847046 26.8674 0.847046 24.9461C0.847046 17.3481 3.11771 11.4094 7.65905 7.13008C12.2877 2.76341 18.8814 0.580078 27.44 0.580078C36.1734 0.580078 42.898 2.89441 47.614 7.52308C52.33 12.1517 54.688 18.7454 54.688 27.3041C54.688 32.7187 53.771 37.7841 51.937 42.5001C50.103 47.2161 47.4394 51.6701 43.946 55.8621C40.54 59.9667 36.479 63.8531 31.763 67.5211V80.3591H13.816ZM13.161 108V89.0051H32.549V108H13.161Z" fill="#1E1E1E"/>
</svg>
